<svg xmlns="http://www.w3.org/2000/svg" width="2330" height="2812" viewBox="0 0 2330 2812" fill="none" transform="rotate(211)"> <path fill-rule="evenodd" clip-rule="evenodd" d="M245.795 0L339.268 134.664L501.78 121.116L595.525 256.173L671.735 262.436L670.253 280.465L594.979 274.279L581.862 302.11L537.246 408.778L643.854 500.468L772.146 426.398L754.845 353.22L772.449 349.058L789.445 420.945L935.121 505.051V668.975L1076.35 750.513V911.078L1209.2 987.778L1343.56 910.203V743.537L1488.16 660.056V495.409L1632.74 411.934V246.583L1786.33 157.909L1795.37 173.575L1650.83 257.027V423.932H1648.14L1506.25 505.853V672.757H1502.34L1361.65 753.981V912.727L1500.02 992.616V1165.36L1358.8 1246.9V1398.64L1500.02 1480.18V1643.78L1616.43 1748.59L1780.15 1712.94L1892.49 1836.45L2053.36 1801.42L2165.7 1924.94L2326.07 1890.01L2329.92 1907.69L2157.83 1945.16L2157.25 1942.54L2047.01 1821.32L1883.92 1856.83L1883.09 1853.01L1773.8 1732.84L1620.82 1766.15L1557.31 1908.8L1631.48 2037.27L1557.41 2165.56L1630.94 2292.91L1557.16 2420.69L1630.94 2548.46L1557.16 2676.24L1630.32 2802.95L1614.65 2812L1539 2680.96L1534.91 2678.6L1536.27 2676.24L1534.9 2673.87L1539.01 2671.5L1610.05 2548.46L1539.01 2425.42L1534.91 2423.05L1536.28 2420.69L1534.91 2418.32L1539.01 2415.96L1610.05 2292.91L1538.65 2169.25L1535.46 2167.41L1536.52 2165.56L1534.91 2162.77L1539.75 2159.98L1610.59 2037.27L1542.59 1919.48L1458.85 1910.67L1460.71 1892.99L1541.13 1901.45L1603.65 1761.01L1490.03 1658.7L1356.45 1735.82L1373.09 1814.11L1355.7 1817.8L1337.42 1731.79L1209.2 1657.76L1067.97 1739.3L918.371 1652.93V1489L777.144 1407.46V1245.76L707.747 1205.69L716.59 1190.38L785.265 1230.03L916.453 1154.28V1003.69L785.265 927.947L654.589 1003.39V1082.99H636.903V993.182L777.144 912.213V759.334L635.916 677.797V517.502L522.157 419.66L354.488 433.638L261.014 298.974L98.5027 312.521L0 170.612L73.646 14.3511L245.795 0ZM1545.76 2165.56L1619.29 2292.91L1545.52 2420.69L1619.29 2548.46L1545.51 2676.24L1617.58 2801.07L1619.39 2800.03L1547.92 2676.24L1621.7 2548.46L1547.92 2420.69L1621.7 2292.91L1548.17 2165.56L1622.24 2037.27L1548.34 1909.27L1615.16 1759.19L1776.61 1724.03L1886.63 1845.01L1888.17 1843.61L1777.34 1721.74L1614.13 1757.29L1492.02 1647.34V1484.8L1350.79 1403.26V1242.28L1492.02 1160.74V997.236L1353.65 917.347V749.361L1495.26 667.6L1494.22 665.794L1351.56 748.157V914.823L1209.2 997.019L1068.35 915.699V755.133L927.119 673.595V509.671L782.453 426.148L766.503 358.687L764.474 359.167L781.304 430.351L642.939 510.236L527.62 411.053L574.548 298.859L590.105 265.849L662.933 271.834L663.104 269.756L591.105 263.839L497.84 129.475L335.329 143.022L241.855 8.35849L78.915 21.9419L9.20835 169.844L102.442 304.163L264.954 290.615L358.427 425.279L524.833 411.407L643.919 513.829V673.176L785.146 754.714V916.834L644.905 997.802V1074.99H646.587V998.773L785.265 918.707L924.455 999.068V1158.9L785.265 1239.27L719.519 1201.31L718.678 1202.76L785.146 1241.14V1402.84L926.373 1484.38V1648.31L1067.97 1730.06L1209.2 1648.52L1344.51 1726.64L1361.87 1808.31L1363.6 1807.94L1347.42 1731.79L1491.06 1648.86L1613.33 1758.95L1546.07 1910.01L1467.83 1901.79L1467.64 1903.55L1547.48 1911.94L1619.83 2037.27L1545.76 2165.56ZM1496.02 664.755H1498.24V501.233L1639.86 419.471L1638.82 417.666L1496.16 500.029V664.676L1496.02 664.755ZM1640.74 415.93H1642.83V252.407L1784.44 170.646L1783.4 168.84L1640.74 251.203V415.93ZM1889.57 1845.14L1890.04 1847.31L2049.82 1812.51L2159.84 1933.49L2161.38 1932.09L2050.55 1810.22L1889.68 1845.26L1889.57 1845.14ZM2163.5 1933.61L2163.94 1935.64L2320.4 1901.57L2319.95 1899.53L2163.5 1933.61ZM240.829 10.5365L332.69 142.877L264.01 288.602L103.469 301.985L11.6078 169.644L80.2879 23.9199L240.829 10.5365ZM85.5569 31.5107L20.8162 168.876L107.408 293.626L258.741 281.011L323.481 143.645L236.889 18.895L85.5569 31.5107ZM496.814 131.653L587.549 262.372L572.642 298.012L519.994 409.718L359.454 423.101L267.593 290.76L336.273 145.036L496.814 131.653ZM341.542 152.627L276.801 289.993L363.393 414.743L514.725 402.127L565.328 294.76L578.473 263.331L492.874 140.011L341.542 152.627ZM563.296 384.017L657.661 468.983L647.806 479.928L553.442 394.961L563.296 384.017ZM786.962 431.159L925.033 510.875V671.972L785.519 752.521L646.004 671.972V516.87L786.962 431.159ZM787.067 440.46L654.006 521.369V667.352L785.519 743.281L917.031 667.352V515.495L787.067 440.46ZM787.422 465.804L906.73 534.686L899.367 547.441L780.058 478.558L787.422 465.804ZM676.457 637.29L795.766 706.173L788.402 718.928L669.094 650.045L676.457 637.29ZM926.746 675.788L1066.26 756.337V916.471L925.912 997.502L787.232 917.435V756.337L926.746 675.788ZM795.234 760.957V912.814L925.912 988.261L1058.26 911.851V760.957L926.746 685.028L795.234 760.957ZM928.647 707.905L1047.96 776.788L1040.59 789.542L921.284 720.659L928.647 707.905ZM817.683 879.392L936.992 948.275L929.628 961.029L810.32 892.146L817.683 879.392ZM1350.42 917.891L1489.94 998.44V1159.54L1351.26 1239.6L1210.91 1158.57V998.44L1350.42 917.891ZM1068.81 918.372L1207.49 998.44V1158.57L1067.97 1239.12L928.458 1158.57V999.403L1068.81 918.372ZM1218.91 1003.06V1153.95L1351.26 1230.36L1481.93 1154.92V1003.06L1350.42 927.131L1218.91 1003.06ZM936.461 1004.02L1068.81 927.613L1199.49 1003.06V1153.95L1067.97 1229.88L936.461 1153.95V1004.02ZM1069.87 950.005L1189.18 1018.89L1181.81 1031.64L1062.5 962.759L1069.87 950.005ZM670.555 1017.82H685.283V1082.99H670.555V1017.82ZM958.903 1121.49L1078.21 1190.38L1070.85 1203.13L951.54 1134.25L958.903 1121.49ZM925.909 1160.47L1066.26 1241.51V1401.64L926.746 1482.19L787.232 1401.64V1240.54L925.909 1160.47ZM1209.2 1160.96L1348.71 1241.5V1401.64L1209.19 1482.19L1069.68 1401.64V1241.51L1209.2 1160.96ZM795.234 1245.16V1397.02L926.746 1472.94L1058.26 1397.02V1246.13L925.909 1169.71L795.234 1245.16ZM1077.68 1246.13V1397.02L1209.19 1472.94L1340.71 1397.02V1246.13L1209.2 1170.2L1077.68 1246.13ZM815.151 1253.2H829.878V1390.96H815.151V1253.2ZM1100.14 1363.6L1219.45 1432.48L1212.08 1445.23L1092.78 1376.35L1100.14 1363.6ZM1067.97 1405.46L1207.49 1486V1647.1L1067.97 1727.65L928.458 1647.1V1486L1067.97 1405.46ZM1350.42 1405.46L1489.94 1486V1646.55L1349.95 1727.38L1210.91 1647.1V1486L1350.42 1405.46ZM936.461 1490.62V1642.48L1067.97 1718.41L1199.49 1642.48V1490.62L1067.97 1414.7L936.461 1490.62ZM1218.91 1490.62V1642.48L1349.95 1718.14L1481.93 1641.93V1490.62L1350.42 1414.7L1218.91 1490.62ZM1352.32 1437.57L1471.62 1506.45L1464.26 1519.21L1344.95 1450.32L1352.32 1437.57ZM1241.35 1609.06L1360.66 1677.94L1353.3 1690.69L1233.99 1621.81L1241.35 1609.06ZM958.903 1609.06L1078.21 1677.94L1070.85 1690.7L951.539 1621.82L958.903 1609.06ZM1490.86 1679.13L1585.22 1764.1L1575.37 1775.04L1481.01 1690.08L1490.86 1679.13Z" fill="#00B5F1"></path> </svg>